<svg width="118" height="102" viewBox="0 0 118 102" fill="none" xmlns="http://www.w3.org/2000/svg">
<path d="M26.2884 8.73072C28.8274 4.55151 33.3631 2 38.2532 2H80.4356C85.3842 2 89.9651 4.61247 92.4848 8.87155L113.783 44.8715C116.384 49.268 116.384 54.732 113.783 59.1285L92.4848 95.1284C89.9651 99.3875 85.3842 102 80.4356 102H38.2532C33.3631 102 28.8274 99.4485 26.2884 95.2693L4.41646 59.2693C1.70293 54.8029 1.70293 49.1971 4.41647 44.7307L26.2884 8.73072Z" fill="#03A6D0"/>
<path d="M86.168 86H34.808V19.184H60.824C66.392 19.184 70.936 20.176 74.456 22.16C77.912 24.08 80.6 26.704 82.52 30.032C84.44 33.36 85.4 37.04 85.4 41.072C85.4 46.064 83.864 50.544 80.792 54.512C77.72 58.416 73.848 61.008 69.176 62.288L86.168 86ZM40.856 22.736L66.968 59.216C71.256 58.32 74.808 56.176 77.624 52.784C80.44 49.392 81.848 45.488 81.848 41.072C81.848 37.552 80.984 34.352 79.256 31.472C77.528 28.592 75.096 26.384 71.96 24.848C69.144 23.44 65.464 22.736 60.92 22.736H40.856ZM38.36 25.04V59.504H63.032L38.36 25.04ZM38.36 82.448H79.448L65.432 62.96L62.456 63.056H38.36V82.448Z" fill="white"/>
<path d="M86.168 86H34.808V19.184H60.824C66.392 19.184 70.936 20.176 74.456 22.16C77.912 24.08 80.6 26.704 82.52 30.032C84.44 33.36 85.4 37.04 85.4 41.072C85.4 46.064 83.864 50.544 80.792 54.512C77.72 58.416 73.848 61.008 69.176 62.288L86.168 86ZM40.856 22.736L66.968 59.216C71.256 58.32 74.808 56.176 77.624 52.784C80.44 49.392 81.848 45.488 81.848 41.072C81.848 37.552 80.984 34.352 79.256 31.472C77.528 28.592 75.096 26.384 71.96 24.848C69.144 23.44 65.464 22.736 60.92 22.736H40.856ZM38.36 25.04V59.504H63.032L38.36 25.04ZM38.36 82.448H79.448L65.432 62.96L62.456 63.056H38.36V82.448Z" fill="white"/>
<path d="M86.168 86H34.808V19.184H60.824C66.392 19.184 70.936 20.176 74.456 22.16C77.912 24.08 80.6 26.704 82.52 30.032C84.44 33.36 85.4 37.04 85.4 41.072C85.4 46.064 83.864 50.544 80.792 54.512C77.72 58.416 73.848 61.008 69.176 62.288L86.168 86ZM40.856 22.736L66.968 59.216C71.256 58.32 74.808 56.176 77.624 52.784C80.44 49.392 81.848 45.488 81.848 41.072C81.848 37.552 80.984 34.352 79.256 31.472C77.528 28.592 75.096 26.384 71.96 24.848C69.144 23.44 65.464 22.736 60.92 22.736H40.856ZM38.36 25.04V59.504H63.032L38.36 25.04ZM38.36 82.448H79.448L65.432 62.96L62.456 63.056H38.36V82.448Z" fill="white"/>
<path d="M86.168 86H34.808V19.184H60.824C66.392 19.184 70.936 20.176 74.456 22.16C77.912 24.08 80.6 26.704 82.52 30.032C84.44 33.36 85.4 37.04 85.4 41.072C85.4 46.064 83.864 50.544 80.792 54.512C77.72 58.416 73.848 61.008 69.176 62.288L86.168 86ZM40.856 22.736L66.968 59.216C71.256 58.32 74.808 56.176 77.624 52.784C80.44 49.392 81.848 45.488 81.848 41.072C81.848 37.552 80.984 34.352 79.256 31.472C77.528 28.592 75.096 26.384 71.96 24.848C69.144 23.44 65.464 22.736 60.92 22.736H40.856ZM38.36 25.04V59.504H63.032L38.36 25.04ZM38.36 82.448H79.448L65.432 62.96L62.456 63.056H38.36V82.448Z" fill="white"/>
<path d="M86.168 86H34.808V19.184H60.824C66.392 19.184 70.936 20.176 74.456 22.16C77.912 24.08 80.6 26.704 82.52 30.032C84.44 33.36 85.4 37.04 85.4 41.072C85.4 46.064 83.864 50.544 80.792 54.512C77.72 58.416 73.848 61.008 69.176 62.288L86.168 86ZM40.856 22.736L66.968 59.216C71.256 58.32 74.808 56.176 77.624 52.784C80.44 49.392 81.848 45.488 81.848 41.072C81.848 37.552 80.984 34.352 79.256 31.472C77.528 28.592 75.096 26.384 71.96 24.848C69.144 23.44 65.464 22.736 60.92 22.736H40.856ZM38.36 25.04V59.504H63.032L38.36 25.04ZM38.36 82.448H79.448L65.432 62.96L62.456 63.056H38.36V82.448Z" fill="white"/>
<path d="M86.168 86H34.808V19.184H60.824C66.392 19.184 70.936 20.176 74.456 22.16C77.912 24.08 80.6 26.704 82.52 30.032C84.44 33.36 85.4 37.04 85.4 41.072C85.4 46.064 83.864 50.544 80.792 54.512C77.72 58.416 73.848 61.008 69.176 62.288L86.168 86ZM40.856 22.736L66.968 59.216C71.256 58.32 74.808 56.176 77.624 52.784C80.44 49.392 81.848 45.488 81.848 41.072C81.848 37.552 80.984 34.352 79.256 31.472C77.528 28.592 75.096 26.384 71.96 24.848C69.144 23.44 65.464 22.736 60.92 22.736H40.856ZM38.36 25.04V59.504H63.032L38.36 25.04ZM38.36 82.448H79.448L65.432 62.96L62.456 63.056H38.36V82.448Z" fill="white"/>
<path d="M86.168 86H34.808V19.184H60.824C66.392 19.184 70.936 20.176 74.456 22.16C77.912 24.08 80.6 26.704 82.52 30.032C84.44 33.36 85.4 37.04 85.4 41.072C85.4 46.064 83.864 50.544 80.792 54.512C77.72 58.416 73.848 61.008 69.176 62.288L86.168 86ZM40.856 22.736L66.968 59.216C71.256 58.32 74.808 56.176 77.624 52.784C80.44 49.392 81.848 45.488 81.848 41.072C81.848 37.552 80.984 34.352 79.256 31.472C77.528 28.592 75.096 26.384 71.96 24.848C69.144 23.44 65.464 22.736 60.92 22.736H40.856ZM38.36 25.04V59.504H63.032L38.36 25.04ZM38.36 82.448H79.448L65.432 62.96L62.456 63.056H38.36V82.448Z" fill="white"/>
<path d="M86.168 86H34.808V19.184H60.824C66.392 19.184 70.936 20.176 74.456 22.16C77.912 24.08 80.6 26.704 82.52 30.032C84.44 33.36 85.4 37.04 85.4 41.072C85.4 46.064 83.864 50.544 80.792 54.512C77.72 58.416 73.848 61.008 69.176 62.288L86.168 86ZM40.856 22.736L66.968 59.216C71.256 58.32 74.808 56.176 77.624 52.784C80.44 49.392 81.848 45.488 81.848 41.072C81.848 37.552 80.984 34.352 79.256 31.472C77.528 28.592 75.096 26.384 71.96 24.848C69.144 23.44 65.464 22.736 60.92 22.736H40.856ZM38.36 25.04V59.504H63.032L38.36 25.04ZM38.36 82.448H79.448L65.432 62.96L62.456 63.056H38.36V82.448Z" fill="white"/>
<path d="M84.168 86H32.808V19.184H58.824C64.392 19.184 68.936 20.176 72.456 22.16C75.912 24.08 78.6 26.704 80.52 30.032C82.44 33.36 83.4 37.04 83.4 41.072C83.4 46.064 81.864 50.544 78.792 54.512C75.72 58.416 71.848 61.008 67.176 62.288L84.168 86ZM38.856 22.736L64.968 59.216C69.256 58.32 72.808 56.176 75.624 52.784C78.44 49.392 79.848 45.488 79.848 41.072C79.848 37.552 78.984 34.352 77.256 31.472C75.528 28.592 73.096 26.384 69.96 24.848C67.144 23.44 63.464 22.736 58.92 22.736H38.856ZM36.36 25.04V59.504H61.032L36.36 25.04ZM36.36 82.448H77.448L63.432 62.96L60.456 63.056H36.36V82.448Z" fill="white"/>
<path d="M88.168 86H36.808V19.184H62.824C68.392 19.184 72.936 20.176 76.456 22.16C79.912 24.08 82.6 26.704 84.52 30.032C86.44 33.36 87.4 37.04 87.4 41.072C87.4 46.064 85.864 50.544 82.792 54.512C79.72 58.416 75.848 61.008 71.176 62.288L88.168 86ZM42.856 22.736L68.968 59.216C73.256 58.32 76.808 56.176 79.624 52.784C82.44 49.392 83.848 45.488 83.848 41.072C83.848 37.552 82.984 34.352 81.256 31.472C79.528 28.592 77.096 26.384 73.96 24.848C71.144 23.44 67.464 22.736 62.92 22.736H42.856ZM40.36 25.04V59.504H65.032L40.36 25.04ZM40.36 82.448H81.448L67.432 62.96L64.456 63.056H40.36V82.448Z" fill="white"/>
</svg>
